<?xml version="1.0" encoding="UTF-8" standalone="no" ?>
<!DOCTYPE svg PUBLIC "-//W3C//DTD SVG 1.1//EN" "http://www.w3.org/Graphics/SVG/1.1/DTD/svg11.dtd">
<svg xmlns="http://www.w3.org/2000/svg" xmlns:xlink="http://www.w3.org/1999/xlink" version="1.1" width="1080" height="1080" viewBox="0 0 1080 1080" xml:space="preserve">
<desc>Created with Fabric.js 5.2.4</desc>
<defs>
</defs>
<rect x="0" y="0" width="100%" height="100%" fill="transparent"></rect>
<g transform="matrix(1 0 0 1 540 540)" id="1c9e3e67-837d-403f-90aa-2c71ab33afee"  >
<rect style="stroke: none; stroke-width: 1; stroke-dasharray: none; stroke-linecap: butt; stroke-dashoffset: 0; stroke-linejoin: miter; stroke-miterlimit: 4; fill: rgb(255,255,255); fill-rule: nonzero; opacity: 1; visibility: hidden;" vector-effect="non-scaling-stroke"  x="-540" y="-540" rx="0" ry="0" width="1080" height="1080" />
</g>
<g transform="matrix(1 0 0 1 540 540)" id="638845cb-f220-4315-b367-f8e23a2f3835"  >
</g>
<g transform="matrix(1 0 0 1 568.29 540)"  >
<path style="stroke: none; stroke-width: 1; stroke-dasharray: none; stroke-linecap: butt; stroke-dashoffset: 0; stroke-linejoin: miter; stroke-miterlimit: 4; fill: rgb(246,248,250); fill-rule: evenodd; opacity: 1;" vector-effect="non-scaling-stroke"  transform=" translate(-256, -256)" d="M 92.16 256 C 92.16 346.4863334122772 165.5136665877228 419.84000000000003 256 419.84000000000003 C 346.48633341227725 419.84000000000003 419.84000000000003 346.4863334122772 419.84000000000003 256 C 419.84000000000003 165.5136665877228 346.48633341227725 92.16 256 92.16 C 165.5136665877228 92.16 92.16000000000003 165.51366658772278 92.16000000000003 255.99999999999997 Z M 151.04000000000002 256 C 151.04000000000002 198.03219265775994 198.03219265775994 151.04000000000002 256 151.04000000000002 C 313.9678073422401 151.04000000000002 360.96000000000004 198.03219265775988 360.96000000000004 255.99999999999997 C 360.96000000000004 313.96780734224006 313.9678073422401 360.96 256.00000000000006 360.96 C 198.03219265775996 360.96 151.04000000000005 313.96780734224006 151.04000000000005 256 Z" stroke-linecap="round" />
</g>
<g transform="matrix(0.76 0.65 -0.99 1.16 677.19 639.76)"  >
<rect style="stroke: none; stroke-width: 1; stroke-dasharray: none; stroke-linecap: butt; stroke-dashoffset: 0; stroke-linejoin: miter; stroke-miterlimit: 4; fill: rgb(246,248,250); fill-rule: nonzero; opacity: 1;" vector-effect="non-scaling-stroke"  x="-76.8" y="-14.08" rx="0" ry="0" width="153.6" height="28.16" />
</g>
</svg>